# xmcd CD database file
#
# Track frame offsets:
#	150
#	18403
#	42410
#	67765
#	81675
#	94688
#	110170
#	134348
#	148965
#	165330
#	199758
#	214248
#	226228
#	241935
#	272950
#	292320
#
# Disc length: 4137 seconds
#
# Revision: 0
# Processed by: cddbd v1.5.2PL0 Copyright (c) Steve Scherf et al.
# Submitted via: CDex 1.70beta2
#
DISCID=f7102710
DTITLE=Elvin Bishop - The Elvin Bishop Group - Party Till The Cows Come Home CD 1
DYEAR=1969
DGENRE=Blues
TTITLE0=The Things That I Used To Do
TTITLE1=Tulsa Shuffle
TTITLE2=Sweet Potatoe
TTITLE3=How Much More
TTITLE4=Dad Gum Ya Hide Boy
TTITLE5=Honey Bee
TTITLE6=Prisoner Of Love
TTITLE7=Don't Fight It (Feel It)
TTITLE8=Just Can't Go On
TTITLE9=So Good
TTITLE10=Crazy 'Bout You Baby
TTITLE11=So Fine
TTITLE12=Party Till The Cows Come Home
TTITLE13=Hogbottom
TTITLE14=Be With Me
TTITLE15=As Years Go Passing By
EXTD=YEAR: 1969
EXTT0=
EXTT1=
EXTT2=
EXTT3=
EXTT4=
EXTT5=
EXTT6=
EXTT7=
EXTT8=
EXTT9=
EXTT10=
EXTT11=
EXTT12=
EXTT13=
EXTT14=
EXTT15=
PLAYORDER=
